<?xml version="1.0" encoding="utf-8"?>
<!-- Generator: Adobe Illustrator 26.5.0, SVG Export Plug-In . SVG Version: 6.00 Build 0)  -->
<svg version="1.1" id="Calque_1" xmlns="http://www.w3.org/2000/svg" xmlns:xlink="http://www.w3.org/1999/xlink" x="0px" y="0px"
	 viewBox="0 0 16 16" style="enable-background:new 0 0 16 16;" xml:space="preserve">
<style type="text/css">
	.st0{fill:#FFFFFF;}
	.st1{enable-background:new    ;}
	.st2{fill:#38AF76;}
	.st3{fill:#005934;}
</style>
<circle class="st0" cx="8" cy="8" r="8"/>
<g class="st1">
	<path class="st2" d="M4.3,3.9h1.1L8.4,11H7L6.3,9.3H3.3L2.6,11H1.2L4.3,3.9z M5.9,8.3L4.8,5.4L3.7,8.3H5.9z"/>
</g>
<g class="st1">
	<path class="st3" d="M9.1,3.9h2.8c0.3,0,0.5,0,0.8,0.1c0.3,0.1,0.5,0.2,0.7,0.3c0.2,0.1,0.4,0.3,0.5,0.6S14,5.3,14,5.7
		c0,0.4-0.1,0.7-0.3,1c-0.2,0.3-0.5,0.4-0.9,0.6v0c0.4,0.1,0.8,0.2,1.1,0.5c0.3,0.3,0.4,0.7,0.4,1.2c0,0.4-0.1,0.7-0.2,1
		s-0.4,0.5-0.6,0.6s-0.5,0.3-0.9,0.3c-0.3,0.1-0.7,0.1-1,0.1H9.1V3.9z M10.3,6.8h1.1c0.4,0,0.7-0.1,1-0.2c0.2-0.2,0.3-0.4,0.3-0.7
		c0-0.3-0.1-0.5-0.3-0.7c-0.2-0.1-0.6-0.2-1.1-0.2h-1V6.8z M10.3,9.9h1.1c0.2,0,0.3,0,0.5,0s0.4-0.1,0.5-0.1
		c0.2-0.1,0.3-0.2,0.4-0.3c0.1-0.1,0.2-0.3,0.2-0.6c0-0.4-0.1-0.6-0.4-0.8c-0.3-0.1-0.6-0.2-1.2-0.2h-1.2V9.9z"/>
</g>
</svg>
